<svg xmlns="http://www.w3.org/2000/svg" xmlns:xlink="http://www.w3.org/1999/xlink" viewBox="0 0 131.81 62.37"><defs><style>.cls-1{fill:url(#Безымянный_градиент_422)}.cls-2{fill:url(#Безымянный_градиент_422-2)}.cls-3{fill:url(#Безымянный_градиент_422-3)}.cls-4{fill:url(#Безымянный_градиент_422-4)}.cls-5{fill:url(#Безымянный_градиент_422-5)}.cls-6{fill:url(#Безымянный_градиент_422-6)}.cls-7{fill:url(#Безымянный_градиент_422-7)}.cls-8{fill:url(#Безымянный_градиент_422-8)}.cls-9{fill:url(#Безымянный_градиент_422-9)}.cls-10{fill:url(#Безымянный_градиент_422-10)}.cls-11{fill:url(#Безымянный_градиент_422-11)}.cls-12{fill:url(#Безымянный_градиент_422-12)}.cls-13{fill:url(#Безымянный_градиент_422-13)}.cls-14{fill:url(#Безымянный_градиент_422-14)}.cls-15{fill:url(#Безымянный_градиент_119)}.cls-16{fill:url(#Безымянный_градиент_422-15)}.cls-17{fill:url(#Безымянный_градиент_422-16)}</style><linearGradient id="Безымянный_градиент_422" x1="19.94" y1="47.09" x2="30.24" y2="62.94" gradientTransform="rotate(-90 24.8 54.57)" gradientUnits="userSpaceOnUse"><stop offset="0" stop-color="#70a6da"/><stop offset="1" stop-color="#62418c"/></linearGradient><linearGradient id="Безымянный_градиент_422-2" x1="34.35" y1="57.19" x2="24.15" y2="45" xlink:href="#Безымянный_градиент_422"/><linearGradient id="Безымянный_градиент_422-3" x1="-.02" y1="45.78" x2="20.3" y2="52.16" xlink:href="#Безымянный_градиент_422"/><linearGradient id="Безымянный_градиент_422-4" x1="49.99" y1="47.27" x2="56.67" y2="62.7" gradientTransform="rotate(-90 53.15 54.57)" xlink:href="#Безымянный_градиент_422"/><linearGradient id="Безымянный_градиент_422-5" x1="41.38" y1="46.28" x2="55.44" y2="61.33" xlink:href="#Безымянный_градиент_422"/><linearGradient id="Безымянный_градиент_422-6" x1="-1120.76" y1="-849.43" x2="-1105.17" y2="-849.43" gradientTransform="rotate(180 -513.605 -397.43)" xlink:href="#Безымянный_градиент_422"/><linearGradient id="Безымянный_градиент_422-7" x1="-1132.09" y1="-849.43" x2="-1116.5" y2="-849.43" gradientTransform="rotate(180 -513.605 -397.43)" xlink:href="#Безымянный_градиент_422"/><linearGradient id="Безымянный_градиент_422-8" x1="116.18" y1="47.46" x2="124.02" y2="63.01" gradientTransform="rotate(-90 119.76 54.57)" xlink:href="#Безымянный_градиент_422"/><linearGradient id="Безымянный_градиент_422-9" x1="107.72" y1="52.44" x2="131.81" y2="52.44" xlink:href="#Безымянный_градиент_422"/><linearGradient id="Безымянный_градиент_422-10" x1="6.85" y1="49.91" x2="13.59" y2="63.03" xlink:href="#Безымянный_градиент_422"/><linearGradient id="Безымянный_градиент_422-11" x1="73.93" y1="47.57" x2="64.84" y2="61.76" xlink:href="#Безымянный_градиент_422"/><linearGradient id="Безымянный_градиент_422-12" x1="60.42" y1="47.33" x2="66.52" y2="56.42" xlink:href="#Безымянный_градиент_422"/><linearGradient id="Безымянный_градиент_422-13" x1="104.88" y1="42.96" x2="104.88" y2="-.84" xlink:href="#Безымянный_градиент_422"/><linearGradient id="Безымянный_градиент_422-14" x1="25.51" y1="41.32" x2="25.51" y2="-.92" xlink:href="#Безымянный_градиент_422"/><linearGradient id="Безымянный_градиент_119" x1="104.88" y1="16.33" x2="104.88" y2="43.21" xlink:href="#Безымянный_градиент_422"/><linearGradient id="Безымянный_градиент_422-15" x1="65.2" y1="41.32" x2="65.2" y2="-1.35" xlink:href="#Безымянный_градиент_422"/><linearGradient id="Безымянный_градиент_422-16" x1="65.2" y1="11.35" x2="65.2" y2="43.17" xlink:href="#Безымянный_градиент_422"/></defs><title>Logotip</title><g id="Слой_2" data-name="Слой 2"><g id="Слой_1-2" data-name="Слой 1"><rect class="cls-1" x="17.01" y="52.44" width="15.59" height="4.25" rx="2.13" ry="2.13" transform="rotate(90 24.8 54.57)"/><path class="cls-2" d="M31.18 46.78H24.8a2.13 2.13 0 0 0 0 4.25h6.38a1.42 1.42 0 0 1 0 2.83h-4.25v4.25h4.25a5.67 5.67 0 0 0 0-11.34z"/><rect class="cls-3" y="46.78" width="19.84" height="4.25" rx="2.13" ry="2.13"/><rect class="cls-4" x="45.35" y="52.44" width="15.59" height="4.25" rx="2.13" ry="2.13" transform="rotate(90 53.15 54.57)"/><path class="cls-5" d="M55.28 54.57V48.9a2.13 2.13 0 0 0-2.13-2.13A2.13 2.13 0 0 0 51 48.9v5.67a3.54 3.54 0 1 1-7.09 0V48.9a2.13 2.13 0 0 0-2.13-2.13 2.13 2.13 0 0 0-2.13 2.13v5.4a8 8 0 0 0 7.28 8 7.8 7.8 0 0 0 8.31-7.78z"/><path class="cls-6" d="M78 54.57v5.67a2.13 2.13 0 0 0 2.13 2.13 2.13 2.13 0 0 0 2.13-2.13v-5.67a3.54 3.54 0 0 1 7.09 0v5.67a2.13 2.13 0 0 0 2.13 2.13 2.13 2.13 0 0 0 2.13-2.13v-5.4a8 8 0 0 0-7.28-8A7.8 7.8 0 0 0 78 54.57z"/><path class="cls-7" d="M89.29 54.57v5.67a2.13 2.13 0 0 0 2.13 2.13 2.13 2.13 0 0 0 2.13-2.13v-5.67a3.54 3.54 0 0 1 7.09 0v5.67a2.13 2.13 0 0 0 2.13 2.13 2.13 2.13 0 0 0 2.13-2.13v-5.4a8 8 0 0 0-7.28-8 7.8 7.8 0 0 0-8.31 7.78z"/><rect class="cls-8" x="111.97" y="52.44" width="15.59" height="4.25" rx="2.13" ry="2.13" transform="rotate(90 119.76 54.57)"/><path class="cls-9" d="M126.14 46.78h-12.75a5.67 5.67 0 0 0 0 11.34h4.25v-4.26h-4.25a1.42 1.42 0 0 1 0-2.83h12.76a1.42 1.42 0 0 1 0 2.83h-4.25v4.25h4.25a5.67 5.67 0 0 0 0-11.34z"/><path class="cls-10" d="M7.8 51v9.21a2.13 2.13 0 0 0 2.13 2.13 2.13 2.13 0 0 0 2.07-2.1V51z"/><path class="cls-11" d="M74.79 50L67.7 61.37a2.13 2.13 0 1 1-3.6-2.27l7.09-11.33a2.13 2.13 0 1 1 3.6 2.23z"/><path class="cls-12" d="M67.32 53.95l-2.51 4-5-7.93a2.13 2.13 0 1 1 3.6-2.27z"/><path class="cls-13" d="M79.62 38.53a5.63 5.63 0 0 0 2.25 3 5.61 5.61 0 0 0 2.54.91h40.82a5.62 5.62 0 0 0 4.8-3.92c0-.12.07-.24.09-.37s0-.12 0-.19v-.26c0-.09 0-.31.05-.46s0-.25 0-.38v-.15-.4-.14c0-.04 0-.28-.07-.42v-.09c0-.16-.07-.32-.12-.47a5.62 5.62 0 0 0-.69-1.45l-19.73-31A5.59 5.59 0 0 0 105 0h-.3a5.59 5.59 0 0 0-4.7 2.72l-19.73 31a5.62 5.62 0 0 0-.69 1.46c0 .16-.09.32-.12.48v.08c0 .14 0 .29-.07.43s0 .09 0 .14V38.16c0 .06.2.25.23.37z"/><path class="cls-14" d="M.25 38.53a5.63 5.63 0 0 0 2.25 3 5.61 5.61 0 0 0 2.54.91h40.82a5.62 5.62 0 0 0 4.8-3.92c0-.12.07-.24.09-.37s0-.12 0-.19v-.26c0-.09 0-.31.05-.46s0-.25 0-.38v-.15-.4-.14c0-.04 0-.28-.07-.42v-.09c0-.16-.07-.32-.12-.47a5.62 5.62 0 0 0-.69-1.45l-19.73-31A5.59 5.59 0 0 0 25.66 0h-.3a5.59 5.59 0 0 0-4.69 2.71l-19.72 31a5.62 5.62 0 0 0-.69 1.46c0 .16-.09.32-.12.48v.08c0 .14 0 .29-.07.43s0 .09 0 .14V38.15c0 .06.15.26.18.38z"/><path class="cls-15" d="M129.45 33.72L109.61 2.55c-.1-.15-.2-.29-.31-.42l-.07-.13c-.1-.12-.21-.24-.33-.36l-.08-.08A5.47 5.47 0 0 0 104.5 0h-.27a5.61 5.61 0 0 0-2.5.91A5.61 5.61 0 0 0 100 2.78L80.32 33.72a5.67 5.67 0 0 0 1.57 7.86A5.69 5.69 0 0 0 89.75 40l2-3.15h13.13a5.67 5.67 0 0 0 0-11.34H99l5.91-9.29L120 40a5.67 5.67 0 0 0 9.44-6.29z"/><path class="cls-16" d="M90.45 4a5.63 5.63 0 0 0-2.25-3 5.61 5.61 0 0 0-2.56-1H44.79A5.62 5.62 0 0 0 40 4c0 .12-.07.24-.09.37s0 .12 0 .19v.26c0 .09 0 .31-.05.46s0 .25 0 .38V6.35c0 .04 0 .28.07.42v.09c0 .16.07.32.12.47a5.62 5.62 0 0 0 .69 1.45l19.73 31A5.59 5.59 0 0 0 65 42.51h.3A5.59 5.59 0 0 0 70 39.8l19.73-31a5.62 5.62 0 0 0 .69-1.46c0-.16.09-.32.12-.48v-.08c0-.14 0-.29.07-.43s0-.09 0-.14V5.8v-.15-.4-.42-.29-.18c0-.06-.12-.24-.16-.36z"/><path class="cls-17" d="M85 0H45.36a5.67 5.67 0 1 0 0 11.34h14.17v25.51a5.67 5.67 0 0 0 11.34 0V11.34H85A5.67 5.67 0 0 0 85 0z"/></g></g></svg>