<svg xmlns="http://www.w3.org/2000/svg" viewBox="0 0 16 16"><defs><style>.cls-1{fill:#f2f2f2}</style></defs><title>phone</title><g id="Слой_2" data-name="Слой 2"><g id="Слой_1-2" data-name="Слой 1"><g id="Layer_2" data-name="Layer 2"><g id="grid"><g id="Layer_2-2" data-name="Layer 2-2"><g id="Layer_2-2-2" data-name="Layer 2-2-2"><path class="cls-1" d="M12.07 10.63a1.11 1.11 0 0 0-1.57-.11l-.11.11c-.4.39-.79.78-1.17 1.18a.23.23 0 0 1-.32.06c-.25-.14-.53-.25-.77-.4a12.19 12.19 0 0 1-2.95-2.68 7 7 0 0 1-1.06-1.7.24.24 0 0 1 .06-.31C4.58 6.4 5 6 5.34 5.63A1.12 1.12 0 0 0 5.49 4l-.15-.1-.92-.9-.95-1a1.12 1.12 0 0 0-1.58-.1l-.1.1c-.4.42-.79.82-1.18 1.2A1.92 1.92 0 0 0 0 4.49a5.47 5.47 0 0 0 .43 2.36A14.3 14.3 0 0 0 3 11.08a15.73 15.73 0 0 0 5.21 4.08 7.54 7.54 0 0 0 2.88.83 2.12 2.12 0 0 0 1.81-.69c.34-.38.72-.72 1.08-1.08a1.12 1.12 0 0 0 .13-1.58l-.11-.13zM8 3.17a.13.13 0 0 0-.14.11L7.73 4.5a.12.12 0 0 0 .11.14A4.11 4.11 0 0 1 11.31 8a.12.12 0 0 0 .12.1l1.22-.21a.12.12 0 0 0 .1-.14A5.6 5.6 0 0 0 8 3.17z"/><path class="cls-1" d="M13.43 2.61A9.13 9.13 0 0 0 8.2 0a.13.13 0 0 0-.14.11l-.17 1.22a.13.13 0 0 0 .11.14 7.72 7.72 0 0 1 6.53 6.33.12.12 0 0 0 .12.1l1.25-.2a.12.12 0 0 0 .1-.14 9.17 9.17 0 0 0-2.57-4.95z"/></g></g></g></g></g></g></svg>