<?xml version="1.0" standalone="no"?>
<!DOCTYPE svg PUBLIC "-//W3C//DTD SVG 20010904//EN"
 "http://www.w3.org/TR/2001/REC-SVG-20010904/DTD/svg10.dtd">
<svg version="1.0" xmlns="http://www.w3.org/2000/svg"
 width="500.000000pt" height="500.000000pt" viewBox="0 0 500.000000 500.000000"
 preserveAspectRatio="xMidYMid meet">
<metadata>
Created by potrace 1.11, written by Peter Selinger 2001-2013
</metadata>
<g transform="translate(0.000000,500.000000) scale(0.100000,-0.100000)"
fill="#000000" stroke="none">
<path d="M931 3649 c-56 -22 -88 -63 -228 -282 -631 -995 -631 -995 -639
-1053 -10 -85 32 -166 106 -204 38 -19 60 -20 835 -20 775 0 797 1 835 20 49
25 91 79 100 130 17 93 7 113 -251 522 -553 872 -531 840 -589 871 -55 28
-122 35 -169 16z"/>
<path d="M1664 3641 c-50 -23 -112 -93 -120 -138 -13 -71 0 -126 50 -204 377
-587 673 -1053 691 -1090 60 -117 182 -159 299 -104 44 21 38 12 233 320 80
127 239 376 353 555 114 179 217 343 228 365 59 116 24 231 -87 288 l-55 27
-775 0 c-732 0 -778 -1 -817 -19z"/>
<path d="M3886 3645 c-59 -21 -88 -55 -218 -260 -67 -104 -234 -365 -371 -580
-138 -214 -258 -408 -268 -430 -43 -93 -7 -212 78 -261 l42 -25 812 0 812 -1
41 29 c82 58 115 178 71 263 -10 19 -134 215 -275 435 -141 220 -312 487 -379
592 -67 106 -134 201 -149 211 -60 42 -128 52 -196 27z"/>
<path d="M2744 1921 c-11 -5 -56 -65 -99 -134 -44 -69 -82 -124 -85 -122 -4 2
-37 52 -74 112 -80 126 -97 143 -141 143 -38 0 -75 -37 -75 -75 0 -12 43 -91
95 -176 52 -85 95 -158 95 -164 -1 -5 -7 -21 -15 -35 -22 -38 -19 -83 8 -108
26 -24 74 -29 100 -9 9 6 79 115 157 240 147 239 161 275 123 310 -23 20 -63
28 -89 18z"/>
<path d="M85 1895 c-30 -30 -32 -64 -4 -99 16 -21 29 -26 62 -26 23 0 79 -3
125 -7 l82 -6 0 -184 c0 -182 0 -184 25 -208 31 -32 66 -32 102 -1 l28 24 0
186 0 186 118 0 119 0 30 30 c25 26 29 36 24 63 -13 67 -13 67 -368 67 l-319
0 -24 -25z"/>
<path d="M929 1901 c-24 -19 -24 -21 -27 -247 -2 -126 -1 -238 3 -251 15 -61
87 -82 130 -38 20 20 25 34 25 78 l0 55 108 3 c95 4 112 7 154 32 52 30 92 88
103 149 10 53 -17 136 -57 175 -57 55 -90 63 -262 63 -136 0 -156 -2 -177 -19z
m327 -162 c17 -19 17 -23 3 -47 -14 -26 -19 -27 -107 -30 l-92 -3 0 51 0 50
88 0 c77 0 91 -3 108 -21z"/>
<path d="M1566 1899 l-26 -20 0 -157 c0 -144 2 -161 24 -207 26 -57 96 -126
153 -151 49 -22 165 -23 214 -2 33 14 37 14 58 -3 30 -25 62 -24 95 2 l26 20
0 248 c0 246 0 248 -23 269 -26 25 -73 28 -99 8 -30 -22 -38 -64 -38 -195 0
-115 -2 -131 -21 -155 -44 -56 -108 -70 -168 -38 -59 32 -71 68 -71 220 0 128
-1 134 -25 157 -30 30 -64 32 -99 4z"/>
<path d="M3173 1910 c-48 -11 -119 -56 -147 -93 -57 -75 -66 -110 -66 -275 0
-149 1 -154 25 -177 26 -27 51 -31 88 -14 39 18 47 50 47 196 l0 135 39 39
c35 35 44 39 88 39 36 0 58 -6 77 -21 49 -38 56 -66 56 -214 0 -131 1 -137 25
-160 26 -27 51 -31 88 -14 39 18 47 50 47 196 l0 135 39 39 c35 35 44 39 88
39 36 0 58 -6 77 -21 48 -38 56 -67 56 -203 0 -72 5 -136 11 -150 25 -54 107
-52 137 4 20 39 11 280 -14 344 -27 70 -96 138 -167 164 -97 37 -178 27 -264
-31 l-49 -33 -39 28 c-67 49 -161 68 -242 48z"/>
<path d="M4205 1908 c-90 -32 -140 -111 -133 -212 5 -82 39 -135 111 -171 44
-22 64 -25 149 -25 l98 0 0 -45 c0 -51 20 -99 45 -109 33 -12 66 -5 90 19 21
20 25 34 25 80 l0 55 100 0 c111 0 155 13 204 58 107 100 79 274 -56 343 -34
17 -60 19 -320 18 -170 0 -295 -5 -313 -11z m191 -148 l34 0 0 -50 0 -50 -90
0 c-84 0 -91 2 -105 24 -13 19 -14 29 -6 45 17 32 43 42 90 36 24 -3 59 -5 77
-5z m390 -25 c15 -23 15 -27 0 -50 -16 -24 -22 -25 -106 -25 l-90 0 0 50 0 50
90 0 c84 0 90 -1 106 -25z"/>
</g>
</svg>
