<svg xmlns="http://www.w3.org/2000/svg" xmlns:xlink="http://www.w3.org/1999/xlink" viewBox="0 0 131.81 62.37"><defs><style>.cls-1{fill:url(#Безымянный_градиент_422);}.cls-2{fill:url(#Безымянный_градиент_422-2);}.cls-3{fill:url(#Безымянный_градиент_422-3);}.cls-4{fill:url(#Безымянный_градиент_422-4);}.cls-5{fill:url(#Безымянный_градиент_422-5);}.cls-6{fill:url(#Безымянный_градиент_422-6);}.cls-7{fill:url(#Безымянный_градиент_422-7);}.cls-8{fill:url(#Безымянный_градиент_422-8);}.cls-9{fill:url(#Безымянный_градиент_422-9);}.cls-10{fill:url(#Безымянный_градиент_422-10);}.cls-11{fill:url(#Безымянный_градиент_422-11);}.cls-12{fill:url(#Безымянный_градиент_422-12);}.cls-13{fill:url(#Безымянный_градиент_422-13);}.cls-14{fill:url(#Безымянный_градиент_422-14);}.cls-15{fill:url(#Безымянный_градиент_119);}.cls-16{fill:url(#Безымянный_градиент_422-15);}.cls-17{fill:url(#Безымянный_градиент_422-16);}</style><linearGradient id="Безымянный_градиент_422" x1="19.94" y1="47.09" x2="30.24" y2="62.94" gradientTransform="translate(-29.77 79.37) rotate(-90)" gradientUnits="userSpaceOnUse"><stop offset="0" stop-color="#70a6da"/><stop offset="1" stop-color="#62418c"/></linearGradient><linearGradient id="Безымянный_градиент_422-2" x1="34.35" y1="57.19" x2="24.15" y2="45" gradientTransform="matrix(1, 0, 0, 1, 0, 0)" xlink:href="#Безымянный_градиент_422"/><linearGradient id="Безымянный_градиент_422-3" x1="-0.02" y1="45.78" x2="20.3" y2="52.16" gradientTransform="matrix(1, 0, 0, 1, 0, 0)" xlink:href="#Безымянный_градиент_422"/><linearGradient id="Безымянный_градиент_422-4" x1="49.99" y1="47.27" x2="56.67" y2="62.7" gradientTransform="translate(-1.42 107.72) rotate(-90)" xlink:href="#Безымянный_градиент_422"/><linearGradient id="Безымянный_градиент_422-5" x1="41.38" y1="46.28" x2="55.44" y2="61.33" gradientTransform="matrix(1, 0, 0, 1, 0, 0)" xlink:href="#Безымянный_градиент_422"/><linearGradient id="Безымянный_градиент_422-6" x1="-1120.76" y1="-849.43" x2="-1105.17" y2="-849.43" gradientTransform="translate(-1027.21 -794.86) rotate(180)" xlink:href="#Безымянный_градиент_422"/><linearGradient id="Безымянный_градиент_422-7" x1="-1132.09" y1="-849.43" x2="-1116.5" y2="-849.43" gradientTransform="translate(-1027.21 -794.86) rotate(180)" xlink:href="#Безымянный_градиент_422"/><linearGradient id="Безымянный_градиент_422-8" x1="116.18" y1="47.46" x2="124.02" y2="63.01" gradientTransform="translate(65.19 174.33) rotate(-90)" xlink:href="#Безымянный_градиент_422"/><linearGradient id="Безымянный_градиент_422-9" x1="107.72" y1="52.44" x2="131.81" y2="52.44" gradientTransform="matrix(1, 0, 0, 1, 0, 0)" xlink:href="#Безымянный_градиент_422"/><linearGradient id="Безымянный_градиент_422-10" x1="6.85" y1="49.91" x2="13.59" y2="63.03" gradientTransform="matrix(1, 0, 0, 1, 0, 0)" xlink:href="#Безымянный_градиент_422"/><linearGradient id="Безымянный_градиент_422-11" x1="73.93" y1="47.57" x2="64.84" y2="61.76" gradientTransform="matrix(1, 0, 0, 1, 0, 0)" xlink:href="#Безымянный_градиент_422"/><linearGradient id="Безымянный_градиент_422-12" x1="60.42" y1="47.33" x2="66.52" y2="56.42" gradientTransform="matrix(1, 0, 0, 1, 0, 0)" xlink:href="#Безымянный_градиент_422"/><linearGradient id="Безымянный_градиент_422-13" x1="104.88" y1="42.96" x2="104.88" y2="-0.84" gradientTransform="matrix(1, 0, 0, 1, 0, 0)" xlink:href="#Безымянный_градиент_422"/><linearGradient id="Безымянный_градиент_422-14" x1="25.51" y1="41.32" x2="25.51" y2="-0.92" gradientTransform="matrix(1, 0, 0, 1, 0, 0)" xlink:href="#Безымянный_градиент_422"/><linearGradient id="Безымянный_градиент_119" x1="104.88" y1="16.33" x2="104.88" y2="43.21" gradientTransform="matrix(1, 0, 0, 1, 0, 0)" xlink:href="#Безымянный_градиент_422"/><linearGradient id="Безымянный_градиент_422-15" x1="65.2" y1="41.32" x2="65.2" y2="-1.35" gradientTransform="matrix(1, 0, 0, 1, 0, 0)" xlink:href="#Безымянный_градиент_422"/><linearGradient id="Безымянный_градиент_422-16" x1="65.2" y1="11.35" x2="65.2" y2="43.17" gradientTransform="matrix(1, 0, 0, 1, 0, 0)" xlink:href="#Безымянный_градиент_422"/></defs><title>Logotip</title><g id="Слой_2" data-name="Слой 2"><g id="Слой_1-2" data-name="Слой 1"><rect class="cls-1" x="17.01" y="52.44" width="15.59" height="4.25" rx="2.13" ry="2.13" transform="translate(79.37 29.77) rotate(90)"/><path class="cls-2" d="M31.18,46.78H24.8a2.13,2.13,0,0,0,0,4.25h6.38a1.42,1.42,0,0,1,0,2.83H26.93v4.25h4.25a5.67,5.67,0,0,0,0-11.34Z"/><rect class="cls-3" y="46.78" width="19.84" height="4.25" rx="2.13" ry="2.13"/><rect class="cls-4" x="45.35" y="52.44" width="15.59" height="4.25" rx="2.13" ry="2.13" transform="translate(107.72 1.42) rotate(90)"/><path class="cls-5" d="M55.28,54.57V48.9a2.13,2.13,0,0,0-2.13-2.13h0A2.13,2.13,0,0,0,51,48.9v5.67h0a3.54,3.54,0,1,1-7.09,0h0V48.9a2.13,2.13,0,0,0-2.13-2.13h0a2.13,2.13,0,0,0-2.13,2.13v5.4a8,8,0,0,0,7.28,8,7.8,7.8,0,0,0,8.31-7.78Z"/><path class="cls-6" d="M78,54.57v5.67a2.13,2.13,0,0,0,2.13,2.13h0a2.13,2.13,0,0,0,2.13-2.13V54.57h0a3.54,3.54,0,0,1,7.09,0h0v5.67a2.13,2.13,0,0,0,2.13,2.13h0a2.13,2.13,0,0,0,2.13-2.13v-5.4a8,8,0,0,0-7.28-8A7.8,7.8,0,0,0,78,54.57Z"/><path class="cls-7" d="M89.29,54.57v5.67a2.13,2.13,0,0,0,2.13,2.13h0a2.13,2.13,0,0,0,2.13-2.13V54.57h0a3.54,3.54,0,0,1,7.09,0h0v5.67a2.13,2.13,0,0,0,2.13,2.13h0a2.13,2.13,0,0,0,2.13-2.13v-5.4a8,8,0,0,0-7.28-8,7.8,7.8,0,0,0-8.31,7.78Z"/><rect class="cls-8" x="111.97" y="52.44" width="15.59" height="4.25" rx="2.13" ry="2.13" transform="translate(174.33 -65.19) rotate(90)"/><path class="cls-9" d="M126.14,46.78H113.39a5.67,5.67,0,0,0,0,11.34h4.25V53.86h-4.25a1.42,1.42,0,0,1,0-2.83h12.76a1.42,1.42,0,0,1,0,2.83h-4.25v4.25h4.25a5.67,5.67,0,0,0,0-11.34Z"/><path class="cls-10" d="M7.8,51v9.21a2.13,2.13,0,0,0,2.13,2.13h0A2.13,2.13,0,0,0,12,60.24V51Z"/><path class="cls-11" d="M74.79,50,67.7,61.37a2.13,2.13,0,1,1-3.6-2.27l7.09-11.33A2.13,2.13,0,1,1,74.79,50Z"/><path class="cls-12" d="M67.32,53.95l-2.51,4-5-7.93a2.13,2.13,0,1,1,3.6-2.27Z"/><path class="cls-13" d="M79.62,38.53v0a5.63,5.63,0,0,0,2.25,3h0a5.61,5.61,0,0,0,2.54.91h0l.46,0h39.9l.46,0h0a5.62,5.62,0,0,0,4.8-3.92v0c0-.12.07-.24.09-.37s0-.12,0-.19,0-.17,0-.26,0-.31.05-.46,0-.25,0-.38v0c0-.05,0-.1,0-.15s0-.27,0-.4,0-.1,0-.14,0-.28-.07-.42l0-.09c0-.16-.07-.32-.12-.47h0a5.62,5.62,0,0,0-.69-1.45l-19.73-31A5.59,5.59,0,0,0,105,0h-.3A5.59,5.59,0,0,0,100,2.72l-19.73,31a5.62,5.62,0,0,0-.69,1.46h0c0,.16-.09.32-.12.48l0,.08c0,.14,0,.29-.07.43s0,.09,0,.14,0,.27,0,.41,0,.1,0,.15v0c0,.13,0,.26,0,.4s0,.28,0,.42,0,.19,0,.29,0,.12,0,.18S79.59,38.41,79.62,38.53Z"/><path class="cls-14" d="M.25,38.53v0a5.63,5.63,0,0,0,2.25,3h0a5.61,5.61,0,0,0,2.54.91h0l.46,0h39.9l.46,0h0a5.62,5.62,0,0,0,4.8-3.92v0c0-.12.07-.24.09-.37s0-.12,0-.19,0-.17,0-.26,0-.31.05-.46,0-.25,0-.38v0c0-.05,0-.1,0-.15s0-.27,0-.4,0-.1,0-.14,0-.28-.07-.42l0-.09c0-.16-.07-.32-.12-.47h0a5.62,5.62,0,0,0-.69-1.45l-19.73-31A5.59,5.59,0,0,0,25.66,0h-.3a5.59,5.59,0,0,0-4.69,2.71L.95,33.71a5.62,5.62,0,0,0-.69,1.46h0c0,.16-.09.32-.12.48l0,.08c0,.14,0,.29-.07.43s0,.09,0,.14,0,.27,0,.41,0,.1,0,.15v0c0,.13,0,.26,0,.4s0,.28,0,.42,0,.19,0,.29,0,.12,0,.18S.22,38.41.25,38.53Z"/><path class="cls-15" d="M129.45,33.72,109.61,2.55c-.1-.15-.2-.29-.31-.42L109.23,2c-.1-.12-.21-.24-.33-.36l-.08-.08A5.47,5.47,0,0,0,104.5,0h-.27a5.61,5.61,0,0,0-2.5.91h0A5.61,5.61,0,0,0,100,2.78L80.32,33.72a5.67,5.67,0,0,0,1.57,7.86A5.69,5.69,0,0,0,89.75,40l2-3.15h13.13a5.67,5.67,0,0,0,0-11.34H99l5.91-9.29L120,40a5.67,5.67,0,0,0,9.44-6.29Z"/><path class="cls-16" d="M90.45,4V4a5.63,5.63,0,0,0-2.25-3h0A5.61,5.61,0,0,0,85.64,0h0l-.46,0H45.25l-.46,0h0A5.62,5.62,0,0,0,40,4V4c0,.12-.07.24-.09.37s0,.12,0,.19,0,.17,0,.26,0,.31-.05.46,0,.25,0,.38v0c0,.05,0,.1,0,.15s0,.27,0,.4,0,.1,0,.14,0,.28.07.42l0,.09c0,.16.07.32.12.47h0a5.62,5.62,0,0,0,.69,1.45l19.73,31A5.59,5.59,0,0,0,65,42.51h.3A5.59,5.59,0,0,0,70,39.8l19.73-31a5.62,5.62,0,0,0,.69-1.46h0c0-.16.09-.32.12-.48l0-.08c0-.14,0-.29.07-.43s0-.09,0-.14,0-.27,0-.41,0-.1,0-.15v0c0-.13,0-.26,0-.4s0-.28,0-.42,0-.19,0-.29,0-.12,0-.18S90.49,4.12,90.45,4Z"/><path class="cls-17" d="M85,0H45.36a5.67,5.67,0,1,0,0,11.34H59.53V36.85a5.67,5.67,0,0,0,11.34,0V11.34H85A5.67,5.67,0,0,0,85,0Z"/></g></g></svg>