<svg xmlns="http://www.w3.org/2000/svg" viewBox="0 0 16 16"><defs><style>.cls-1{fill:#f2f2f2;}</style></defs><title>phone</title><g id="Слой_2" data-name="Слой 2"><g id="Слой_1-2" data-name="Слой 1"><g id="Layer_2" data-name="Layer 2"><g id="grid"><g id="Layer_2-2" data-name="Layer 2-2"><g id="Layer_2-2-2" data-name="Layer 2-2-2"><path class="cls-1" d="M12.07,10.63a1.11,1.11,0,0,0-1.57-.11l-.11.11c-.4.39-.79.78-1.17,1.18a.23.23,0,0,1-.32.06h0c-.25-.14-.53-.25-.77-.4A12.19,12.19,0,0,1,5.18,8.79,7,7,0,0,1,4.12,7.09a.24.24,0,0,1,.06-.31C4.58,6.4,5,6,5.34,5.63A1.12,1.12,0,0,0,5.49,4L5.34,3.9,4.42,3,3.47,2a1.12,1.12,0,0,0-1.58-.1l-.1.1C1.39,2.42,1,2.82.61,3.2A1.92,1.92,0,0,0,0,4.49,5.47,5.47,0,0,0,.43,6.85,14.3,14.3,0,0,0,3,11.08a15.73,15.73,0,0,0,5.21,4.08,7.54,7.54,0,0,0,2.88.83,2.12,2.12,0,0,0,1.81-.69c.34-.38.72-.72,1.08-1.08a1.12,1.12,0,0,0,.13-1.58L14,12.51Z"/><path class="cls-1" d="M8,3.17a.13.13,0,0,0-.14.11L7.73,4.5a.12.12,0,0,0,.11.14A4.11,4.11,0,0,1,11.31,8a.12.12,0,0,0,.12.1h0l1.22-.21a.12.12,0,0,0,.1-.14A5.6,5.6,0,0,0,8,3.17Z"/><path class="cls-1" d="M13.43,2.61A9.13,9.13,0,0,0,8.2,0a.13.13,0,0,0-.14.11L7.89,1.33A.13.13,0,0,0,8,1.47,7.72,7.72,0,0,1,14.53,7.8a.12.12,0,0,0,.12.1h0L15.9,7.7a.12.12,0,0,0,.1-.14h0A9.17,9.17,0,0,0,13.43,2.61Z"/></g></g></g></g></g></g></svg>